<?xml version="1.0" standalone="no"?>
<!DOCTYPE svg PUBLIC "-//W3C//DTD SVG 20010904//EN"
 "http://www.w3.org/TR/2001/REC-SVG-20010904/DTD/svg10.dtd">
<svg version="1.0" xmlns="http://www.w3.org/2000/svg"
 width="1920.000000pt" height="1080.000000pt" viewBox="0 0 1920.000000 1080.000000"
 preserveAspectRatio="xMidYMid meet">
<metadata>
Created by potrace 1.16, written by Peter Selinger 2001-2019
</metadata>
<g transform="translate(0.000000,1080.000000) scale(0.100000,-0.100000)"
fill="#000000" stroke="none">
<path d="M12595 6975 c-331 -73 -592 -320 -699 -663 -39 -125 -49 -210 -43
-367 10 -248 87 -448 247 -633 115 -134 263 -229 440 -283 102 -32 349 -34
450 -5 151 44 279 117 393 226 419 397 415 1100 -8 1498 -124 117 -271 195
-427 226 -93 19 -269 20 -353 1z m309 -260 c315 -82 540 -449 496 -809 -59
-488 -488 -776 -875 -586 -163 80 -307 266 -362 470 -25 91 -25 319 0 410 56
206 193 385 361 472 106 55 264 73 380 43z"/>
<path d="M7340 5995 l0 -975 145 0 145 0 2 320 3 320 264 -320 264 -320 153 0
c85 0 154 2 154 5 0 2 -142 176 -315 386 l-316 381 38 46 c21 26 144 175 273
332 130 157 239 291 244 298 6 9 -26 12 -147 12 l-155 0 -228 -279 -229 -279
-3 524 -2 524 -145 0 -145 0 0 -975z"/>
<path d="M10190 5995 l0 -975 264 0 c289 0 378 8 504 46 441 133 735 575 682
1028 -38 323 -234 605 -527 758 -188 98 -301 118 -659 118 l-264 0 0 -975z
m588 699 c436 -90 684 -530 532 -946 -37 -100 -77 -165 -155 -247 -79 -84
-182 -151 -286 -186 -73 -24 -104 -28 -236 -33 l-153 -5 0 717 0 716 110 0
c62 0 145 -7 188 -16z"/>
<path d="M6474 6486 c-145 -27 -271 -116 -323 -226 -22 -46 -26 -69 -26 -140
0 -72 4 -93 27 -141 53 -107 122 -160 403 -310 67 -36 138 -82 162 -106 77
-76 79 -163 7 -243 -112 -124 -341 -73 -441 97 -13 23 -32 43 -41 43 -9 0 -58
-12 -108 -26 l-92 -26 15 -52 c43 -150 169 -272 329 -322 76 -24 96 -26 192
-22 123 6 187 26 282 90 117 78 180 196 180 338 0 138 -46 235 -152 320 -31
25 -138 90 -238 145 -254 138 -298 182 -266 259 32 76 142 119 248 97 30 -7
88 -28 128 -47 40 -19 73 -33 74 -32 1 2 26 40 55 86 l54 83 -23 24 c-84 89
-290 140 -446 111z"/>
<path d="M8549 6433 c11 -27 134 -324 275 -662 141 -338 256 -620 256 -628 0
-8 -30 -87 -67 -175 -57 -137 -74 -169 -120 -218 -29 -32 -66 -63 -83 -70 -16
-7 -27 -16 -24 -21 3 -5 45 -36 94 -69 l89 -60 54 20 c65 24 128 77 162 134
13 23 47 98 76 166 28 69 168 406 311 750 143 344 268 645 278 670 10 25 34
82 54 128 l35 83 -150 -3 -151 -3 -23 -55 c-12 -30 -103 -248 -200 -483 -98
-235 -181 -424 -185 -420 -4 4 -51 114 -105 243 -53 129 -142 344 -198 478
l-101 242 -148 0 -148 0 19 -47z"/>
<path d="M11536 4810 c-126 -20 -275 -63 -464 -134 -218 -82 -687 -259 -827
-313 -49 -19 -121 -46 -160 -60 -38 -14 -78 -33 -87 -41 -21 -17 -24 -62 -6
-80 25 -25 -9 -36 833 283 605 230 621 234 895 242 157 4 203 2 305 -15 281
-48 534 -165 752 -347 43 -36 85 -65 94 -65 23 0 49 33 49 63 0 20 -16 40 -72
87 -208 175 -465 300 -745 361 -78 17 -140 22 -303 24 -113 2 -231 0 -264 -5z"/>
<path d="M13460 4525 c-52 -52 -100 -94 -107 -95 -7 0 -66 30 -133 66 -67 37
-124 64 -127 60 -3 -3 23 -65 58 -136 l63 -131 -97 -91 c-88 -81 -115 -118
-87 -118 13 0 220 30 247 35 18 4 25 -2 41 -37 44 -99 106 -218 113 -218 8 0
13 18 34 145 24 149 16 140 137 154 148 17 178 23 178 31 0 4 -56 37 -125 74
-102 55 -125 71 -125 89 0 12 9 68 20 125 22 111 24 142 13 142 -5 0 -51 -43
-103 -95z"/>
<path d="M6340 4569 c-37 -14 -70 -68 -70 -116 0 -55 31 -95 219 -284 164
-165 254 -245 386 -345 850 -644 1887 -901 2935 -728 167 28 3009 733 3061
759 61 32 79 129 33 184 -55 66 42 85 -1473 -294 -757 -189 -1428 -355 -1493
-369 -858 -191 -1762 -50 -2538 395 -282 162 -614 430 -822 664 -125 140 -164
162 -238 134z"/>
<path d="M11920 4530 c-41 -4 -97 -13 -125 -20 -61 -14 -825 -239 -836 -246
-15 -9 -10 -51 6 -58 8 -3 103 21 212 54 701 208 681 203 853 203 152 -1 269
-25 394 -82 93 -42 220 -128 281 -190 53 -55 78 -63 96 -30 10 19 4 28 -57 87
-214 205 -530 313 -824 282z"/>
</g>
</svg>
